<?xml version="1.0" standalone="no"?>
<!DOCTYPE svg PUBLIC "-//W3C//DTD SVG 20010904//EN"
 "http://www.w3.org/TR/2001/REC-SVG-20010904/DTD/svg10.dtd">
<svg version="1.0" xmlns="http://www.w3.org/2000/svg"
 width="1024.000000pt" height="1024.000000pt" viewBox="0 0 1024.000000 1024.000000"
 preserveAspectRatio="xMidYMid meet">

<g transform="translate(0.000000,1024.000000) scale(0.100000,-0.100000)"
fill="#000000" stroke="none">
<path d="M6105 8926 c-22 -7 -67 -19 -100 -26 -75 -17 -160 -53 -191 -82 -14
-13 -50 -54 -82 -93 -31 -38 -60 -71 -64 -73 -5 -2 -27 -30 -49 -63 -23 -32
-45 -59 -49 -59 -17 0 -69 -119 -85 -197 -3 -18 -16 -44 -28 -59 -18 -23 -21
-41 -21 -110 0 -74 3 -89 37 -156 27 -56 52 -89 97 -129 34 -30 89 -81 124
-114 46 -45 95 -77 192 -126 151 -78 315 -149 342 -149 10 0 44 -9 76 -20 31
-10 63 -17 71 -13 9 3 22 0 30 -7 8 -6 19 -9 25 -5 5 3 10 2 10 -3 0 -6 30
-18 68 -28 37 -10 91 -28 120 -41 29 -13 62 -23 73 -23 11 0 18 -4 14 -9 -3
-5 12 -15 32 -22 21 -7 52 -20 68 -29 17 -9 66 -36 110 -61 97 -52 96 -52 157
-112 27 -26 46 -52 43 -57 -3 -5 5 -14 17 -20 21 -10 22 -10 5 3 -11 10 -14
18 -8 22 14 8 47 -10 55 -31 5 -14 4 -15 -9 -4 -8 7 -15 8 -15 2 0 -11 23 -31
54 -47 11 -7 20 -16 19 -22 -1 -6 14 -26 34 -44 97 -91 143 -146 143 -169 0
-6 23 -39 50 -74 28 -35 50 -68 50 -73 0 -6 15 -30 34 -54 19 -23 33 -46 30
-51 -4 -6 3 -24 28 -68 43 -77 115 -228 135 -280 13 -36 35 -93 49 -128 41
-104 108 -340 139 -492 10 -47 22 -89 26 -95 5 -5 9 -29 10 -55 0 -25 4 -63 8
-85 5 -27 7 -5 5 65 -4 140 -13 225 -29 269 -16 47 -30 137 -15 103 6 -13 12
-37 15 -52 3 -16 9 -40 14 -54 11 -29 34 -140 35 -176 1 -14 7 -56 13 -95 37
-219 43 -273 43 -396 0 -74 -7 -179 -15 -234 -9 -55 -20 -135 -25 -178 -14
-119 -78 -341 -145 -502 -46 -110 -178 -396 -213 -458 -112 -204 -171 -295
-319 -494 -76 -103 -320 -348 -438 -440 -127 -100 -432 -292 -466 -294 -22 -1
-74 -35 -72 -47 2 -6 -4 -9 -12 -6 -7 3 -22 1 -32 -5 -17 -10 -17 -10 0 -11
10 0 15 -5 12 -10 -4 -7 -12 -7 -25 0 -26 14 -33 13 -26 -5 4 -11 -3 -19 -22
-27 -15 -6 -40 -16 -57 -23 -16 -7 -54 -20 -83 -30 -34 -11 -50 -21 -46 -28 5
-8 2 -8 -7 1 -15 14 -33 16 -25 3 4 -5 -4 -7 -16 -3 -11 3 -19 1 -16 -4 4 -5
-7 -9 -23 -10 -16 -1 -29 3 -29 8 0 4 -8 4 -17 -1 -68 -36 -362 -94 -543 -106
-36 -3 -110 -10 -165 -15 -55 -6 -129 -12 -165 -14 -99 -4 -506 34 -578 54
-20 5 -38 7 -42 5 -4 -3 -22 0 -38 6 -17 6 -39 9 -49 6 -13 -2 -8 -7 16 -13
19 -6 35 -17 36 -25 2 -13 -4 -14 -39 -8 -22 4 -59 13 -81 19 -22 6 -65 13
-95 15 -30 2 -59 4 -63 4 -5 1 -5 6 -2 11 3 6 -2 10 -12 10 -25 0 -141 28
-238 57 -134 40 -259 92 -335 139 -40 24 -78 44 -85 44 -7 0 -27 12 -44 26
-17 14 -36 22 -42 18 -7 -4 -9 -3 -6 3 4 6 -7 16 -23 23 -17 7 -28 15 -26 18
7 6 96 -40 96 -50 0 -5 9 -8 20 -8 19 0 116 -42 225 -97 57 -29 165 -66 172
-60 2 3 -13 10 -34 17 -21 7 -75 30 -121 51 -45 22 -85 39 -88 39 -11 0 -267
131 -295 150 -30 22 -44 26 -34 9 4 -6 -9 0 -29 13 -20 13 -36 27 -36 31 0 5
15 -2 33 -14 l32 -22 -21 22 c-11 12 -28 23 -36 25 -8 1 -23 9 -32 19 -19 19
-51 24 -40 6 5 -8 2 -9 -7 -3 -8 5 -31 20 -51 33 -21 12 -38 27 -38 33 0 5 18
-4 39 -21 21 -17 42 -31 46 -31 14 0 -10 23 -68 65 -56 42 -196 165 -277 245
-20 19 -69 66 -110 105 l-75 69 60 -63 c67 -72 181 -183 300 -296 44 -41 77
-75 74 -75 -4 0 -32 19 -63 42 -31 24 -81 59 -111 78 -47 30 -283 259 -355
345 -90 106 -193 250 -253 350 -57 95 -257 484 -257 499 0 4 -9 26 -19 49 -64
142 -109 290 -151 499 -6 32 -16 61 -22 64 -7 5 -9 -2 -6 -20 3 -14 2 -29 -3
-32 -5 -2 -4 -16 1 -30 6 -14 10 -38 9 -52 -2 -29 44 -210 61 -242 7 -12 7
-21 0 -25 -5 -3 -10 -12 -10 -18 0 -7 4 -6 10 3 5 8 10 13 10 10 0 -3 4 -20 9
-38 7 -23 7 -30 -1 -26 -15 9 -3 -37 26 -101 13 -27 27 -61 31 -75 4 -14 11
-29 15 -35 4 -5 10 -26 13 -45 4 -26 -5 -13 -34 47 -95 201 -157 432 -194 723
-7 58 -16 113 -20 123 -4 10 -3 17 5 17 6 0 9 4 6 9 -11 16 -26 188 -32 351
-6 143 1 282 21 495 8 74 37 249 56 335 11 47 26 117 34 155 16 72 87 306 110
360 7 17 32 77 55 135 55 134 172 375 206 426 15 21 45 68 67 104 83 135 182
252 409 480 333 334 466 462 523 503 28 19 74 60 104 91 30 30 58 53 63 50 4
-3 8 -1 8 5 0 5 9 13 20 16 11 3 20 13 20 21 0 8 4 13 9 10 5 -3 40 15 77 41
38 25 100 61 137 79 37 18 74 38 82 44 8 6 20 8 26 4 7 -4 9 -3 6 2 -5 9 16
17 106 41 9 2 15 9 12 14 -3 5 1 6 9 3 8 -3 28 1 43 10 65 35 121 55 143 49
15 -4 21 -2 16 5 -3 6 -1 14 5 18 8 5 9 3 4 -6 -6 -10 -2 -11 18 -6 46 11 82
28 70 33 -7 2 -21 0 -32 -6 -27 -15 -41 -13 -16 1 11 7 40 13 65 15 25 1 52 4
60 6 62 16 77 22 96 34 11 7 24 10 27 6 4 -3 7 -1 7 6 0 7 5 9 10 6 6 -3 10
-1 10 5 0 8 -11 9 -32 5 -25 -5 -29 -4 -18 4 8 6 31 11 50 11 20 0 46 7 58 16
13 9 26 14 29 10 6 -5 63 21 63 29 0 2 -11 0 -25 -5 -14 -5 -25 -8 -25 -5 0 2
-15 -1 -32 -6 -18 -6 -44 -12 -58 -15 -164 -31 -643 -215 -920 -353 -456 -228
-680 -391 -1010 -736 -377 -394 -616 -784 -768 -1255 -77 -239 -97 -312 -178
-669 -13 -58 -13 -4 1 110 31 264 92 480 252 889 44 112 138 310 152 320 17
11 72 121 66 130 -3 5 6 15 20 20 14 5 24 14 21 19 -3 4 6 19 19 31 14 13 25
27 25 32 0 5 -11 -4 -25 -19 -35 -40 -31 -13 5 33 17 22 46 62 66 89 l35 50
-35 -40 c-101 -115 -116 -133 -116 -143 0 -6 -8 -17 -18 -24 -34 -24 -134
-191 -219 -367 -479 -990 -558 -1874 -247 -2771 90 -261 240 -599 352 -793 57
-98 28 -74 -36 30 -54 89 -210 390 -260 503 -89 202 -102 237 -172 455 -37
116 -112 442 -122 535 -3 19 -5 -10 -5 -65 -1 -141 43 -392 99 -570 14 -44 39
-123 55 -175 45 -145 76 -216 193 -455 165 -336 308 -579 454 -775 87 -117
292 -326 391 -400 180 -135 290 -221 293 -230 9 -24 317 -231 422 -283 8 -5
33 -19 55 -32 50 -30 165 -86 270 -131 44 -19 91 -40 105 -46 14 -6 33 -13 42
-15 10 -1 48 -16 85 -32 103 -45 251 -101 266 -101 7 0 18 -5 25 -12 7 -7 12
-8 12 -4 0 5 7 3 15 -4 8 -7 15 -10 15 -6 0 3 17 0 38 -8 67 -26 265 -75 382
-96 131 -23 493 -56 715 -65 148 -6 449 12 575 35 334 60 610 136 800 221 82
37 309 151 380 192 25 15 70 39 100 54 167 82 490 299 640 431 53 46 60 40 8
-7 -103 -94 -341 -269 -498 -366 -27 -16 -89 -55 -138 -87 -49 -31 -122 -73
-163 -93 -41 -21 -86 -46 -101 -56 -14 -11 -33 -19 -42 -19 -9 0 -16 -4 -16
-8 0 -5 -17 -16 -37 -25 -21 -8 -76 -32 -123 -52 -144 -62 -347 -124 -540
-166 -102 -21 -214 -46 -250 -54 -36 -8 -92 -19 -125 -24 -33 -6 -116 -20
-185 -31 -109 -19 -154 -21 -350 -18 -154 3 -211 1 -180 -5 84 -17 570 -13
730 7 419 51 677 118 1015 263 232 100 358 172 685 389 91 61 182 132 320 252
93 80 389 375 427 425 18 23 71 92 119 152 99 126 125 164 292 440 176 293
264 503 368 880 42 154 116 598 118 712 0 17 3 30 6 28 3 -2 5 27 6 63 1 37 2
136 3 221 2 98 6 149 12 140 5 -8 6 -27 3 -44 -4 -16 -3 -26 2 -22 5 5 11 32
15 60 3 29 6 -28 6 -125 0 -98 -3 -178 -6 -178 -4 0 -6 17 -4 38 3 36 2 36 -6
7 -5 -16 -11 -82 -14 -145 -3 -63 -8 -123 -12 -132 -4 -11 -3 -18 3 -18 6 0
12 8 14 17 3 15 5 14 10 -4 3 -13 2 -21 -4 -20 -14 3 -28 -50 -22 -82 3 -14
-2 -66 -11 -116 -9 -49 -21 -126 -26 -170 -16 -133 -17 -137 -26 -144 -5 -3
-15 -37 -22 -76 -7 -38 -17 -83 -21 -100 -32 -117 -44 -154 -55 -180 -46 -104
-105 -267 -100 -275 3 -5 0 -12 -8 -17 -7 -4 -41 -66 -76 -138 -35 -71 -84
-161 -108 -198 -25 -38 -42 -71 -40 -73 5 -6 96 130 146 216 57 100 118 234
147 320 15 47 39 114 52 150 14 36 33 101 44 144 10 43 29 111 42 150 59 176
125 491 106 510 -5 5 -5 16 1 27 19 37 31 234 32 554 2 416 -10 616 -54 874
-33 192 -97 394 -247 776 -62 159 -180 392 -267 525 -131 201 -401 516 -590
689 -38 36 -121 112 -183 170 -62 57 -120 110 -130 118 -202 153 -292 218
-369 263 -35 21 -72 49 -84 64 -11 14 -26 26 -32 26 -7 0 -35 15 -62 33 -28
19 -62 37 -77 41 -15 3 -50 20 -78 36 -28 17 -55 30 -59 30 -5 0 -42 14 -82
31 -112 48 -317 100 -449 114 -130 13 -215 14 -255 1z m-1800 -256 c-3 -5 -18
-10 -33 -9 l-27 1 25 8 c35 11 42 11 35 0z m-818 -321 c-22 -11 -41 -18 -44
-15 -3 3 10 12 28 20 50 21 60 18 16 -5z m-114 -56 c-7 -2 -13 -9 -13 -14 0
-6 5 -7 12 -3 6 4 8 3 5 -4 -4 -5 -16 -8 -27 -5 -19 5 -20 6 -3 19 10 7 23 13
28 13 6 0 4 -3 -2 -6z m2907 -772 c0 -5 10 -11 22 -14 12 -4 19 -9 16 -13 -10
-9 -79 16 -73 27 8 12 35 12 35 0z m-4263 -306 c0 -8 -4 -12 -9 -9 -5 3 -6 10
-3 15 9 13 12 11 12 -6z m5117 -135 c-6 -5 -24 21 -24 34 0 6 6 1 14 -10 8
-10 12 -21 10 -24z m1773 -552 c-3 -8 -6 -5 -6 6 -1 11 2 17 5 13 3 -3 4 -12
1 -19z m10 -40 c-3 -8 -6 -5 -6 6 -1 11 2 17 5 13 3 -3 4 -12 1 -19z m-1214
-168 c3 -11 2 -18 -3 -15 -4 3 -10 14 -13 25 -3 11 -2 18 3 15 4 -3 10 -14 13
-25z m1317 -231 c0 -6 -4 -7 -10 -4 -5 3 -10 11 -10 16 0 6 5 7 10 4 6 -3 10
-11 10 -16z m8 -104 c-3 -3 -9 2 -12 12 -6 14 -5 15 5 6 7 -7 10 -15 7 -18z
m19 -98 c1 -29 1 -30 -8 -9 -5 13 -7 28 -3 33 8 14 9 12 11 -24z m40 -349 c-3
-8 -6 -5 -6 6 -1 11 2 17 5 13 3 -3 4 -12 1 -19z m-19 -53 c-3 -14 -2 -25 1
-25 4 0 7 -17 8 -37 l1 -38 -14 39 c-8 21 -11 49 -8 62 8 32 18 31 12 -1z
m-1101 -27 c-3 -8 -6 -5 -6 6 -1 11 2 17 5 13 3 -3 4 -12 1 -19z m1110 -100
c-3 -8 -6 -5 -6 6 -1 11 2 17 5 13 3 -3 4 -12 1 -19z m12 -75 c0 -33 -1 -35
-9 -15 -8 20 -4 52 6 52 2 0 4 -17 3 -37z m-7641 -197 c1 -25 -2 -47 -8 -51
-6 -4 -10 12 -10 44 0 63 14 68 18 7z m16 -231 c4 -60 3 -81 -3 -62 -5 15 -12
74 -15 130 -3 69 -2 89 3 62 5 -22 12 -80 15 -130z m7623 -12 c-3 -10 -5 -4
-5 12 0 17 2 24 5 18 2 -7 2 -21 0 -30z m-1 -150 c-10 -10 -19 5 -10 18 6 11
8 11 12 0 2 -7 1 -15 -2 -18z m-7593 -38 c4 -27 3 -35 -3 -25 -5 8 -10 28 -10
44 0 39 6 30 13 -19z m-189 -60 c-4 -8 -8 -15 -10 -15 -2 0 -4 7 -4 15 0 8 4
15 10 15 5 0 7 -7 4 -15z m203 -17 c-3 -8 -6 -5 -6 6 -1 11 2 17 5 13 3 -3 4
-12 1 -19z m487 -824 c3 -8 2 -12 -4 -9 -6 3 -10 10 -10 16 0 14 7 11 14 -7z
m74 -69 c-3 -3 -9 2 -12 12 -6 14 -5 15 5 6 7 -7 10 -15 7 -18z m42 -68 c0
-12 0 -11 -24 28 l-17 30 20 -24 c12 -13 21 -28 21 -34z m29 -791 c-2 -2 -13
8 -23 22 l-19 27 24 -22 c12 -12 21 -24 18 -27z m4913 -103 c-11 -16 -37 -41
-58 -58 -21 -16 -61 -51 -89 -77 -54 -50 -203 -153 -236 -163 -10 -4 -19 -11
-19 -17 0 -6 -9 -8 -20 -5 -11 3 -20 2 -20 -2 0 -4 -16 -15 -35 -24 -19 -9
-35 -13 -35 -9 0 10 71 48 82 44 5 -1 15 3 23 10 8 7 58 40 112 73 53 33 120
84 148 113 28 28 56 52 62 52 6 0 31 20 55 44 50 52 57 56 30 19z m-4823 -38
c17 -20 31 -43 30 -53 0 -14 -2 -14 -6 -2 -4 8 -11 20 -17 25 -30 27 -58 65
-49 65 6 0 25 -16 42 -35z m5892 -94 c-33 -46 -195 -223 -231 -253 -19 -16
-38 -28 -44 -28 -5 0 5 11 24 25 19 14 52 47 75 74 44 54 188 210 193 211 2 0
-6 -13 -17 -29z m-5731 -105 c0 -13 -35 21 -83 79 l-41 50 62 -60 c34 -33 62
-64 62 -69z m115 -99 c6 -6 -3 -1 -20 10 -16 12 -43 36 -60 54 -22 25 -17 22
20 -10 28 -24 55 -49 60 -54z m3920 -77 c-3 -5 -14 -10 -23 -10 -15 0 -15 2
-2 10 20 13 33 13 25 0z m-425 -170 c0 -5 -5 -10 -11 -10 -5 0 -7 5 -4 10 3 6
8 10 11 10 2 0 4 -4 4 -10z m-70 -12 c0 -4 -9 -8 -21 -8 -11 0 -18 4 -15 8 3
5 12 9 21 9 8 0 15 -4 15 -9z m-45 -18 c8 -13 -5 -13 -25 0 -13 8 -13 10 2 10
9 0 20 -4 23 -10z m-208 -36 c-3 -3 -12 -4 -19 -1 -8 3 -5 6 6 6 11 1 17 -2
13 -5z m-1172 -29 c49 -17 78 -20 55 -5 -13 8 -13 10 1 10 9 0 22 -6 28 -13 6
-8 23 -15 38 -15 16 -1 44 -6 63 -11 l35 -9 -30 -1 c-16 0 -68 6 -115 15 -47
8 -100 18 -117 21 -18 3 -33 9 -33 14 0 13 29 11 75 -6z m1098 8 c-7 -2 -19
-2 -25 0 -7 3 -2 5 12 5 14 0 19 -2 13 -5z m-133 -29 c-19 -9 -49 -13 -66 -11
-18 3 -51 1 -75 -5 -77 -18 -91 -19 -269 -23 -133 -3 -167 -1 -140 7 47 14
122 19 482 32 32 1 60 5 64 9 4 4 14 7 23 7 9 -1 0 -8 -19 -16z m-600 -14 c20
-7 17 -8 -20 -8 -25 0 -56 4 -70 8 -20 7 -17 8 20 8 25 0 56 -4 70 -8z"/>
<path d="M3677 8618 c-32 -11 -56 -22 -54 -24 4 -5 127 36 127 42 0 6 -11 4
-73 -18z"/>
<path d="M3555 8570 c-3 -6 1 -7 9 -4 18 7 21 14 7 14 -6 0 -13 -4 -16 -10z"/>
<path d="M3434 8527 c-39 -18 -77 -37 -85 -43 -8 -7 -33 -21 -57 -33 -178 -90
-612 -444 -722 -589 -14 -19 56 43 140 123 264 251 446 386 685 506 66 34 122
63 124 65 11 11 -20 0 -85 -29z"/>
<path d="M3995 8550 c-3 -6 1 -7 9 -4 18 7 21 14 7 14 -6 0 -13 -4 -16 -10z"/>
<path d="M3950 8530 c-8 -5 -10 -10 -5 -10 6 0 17 5 25 10 8 5 11 10 5 10 -5
0 -17 -5 -25 -10z"/>
<path d="M3883 8499 c-46 -29 -41 -36 5 -8 46 28 47 29 36 29 -5 0 -24 -10
-41 -21z"/>
<path d="M2493 7788 c-15 -20 -25 -38 -20 -38 3 0 12 11 21 25 17 26 16 35 -1
13z"/>
<path d="M2402 7672 c-52 -66 -52 -66 -7 -17 41 44 71 85 63 85 -2 0 -27 -31
-56 -68z"/>
<path d="M2254 7668 l-19 -23 23 19 c21 18 27 26 19 26 -2 0 -12 -10 -23 -22z"/>
<path d="M2260 7519 c-34 -44 -60 -83 -58 -85 4 -3 103 123 121 152 21 36 -7
6 -63 -67z"/>
<path d="M2030 7520 c-6 -11 -8 -20 -6 -20 3 0 10 9 16 20 6 11 8 20 6 20 -3
0 -10 -9 -16 -20z"/>
<path d="M2154 7388 l-19 -23 23 19 c21 18 27 26 19 26 -2 0 -12 -10 -23 -22z"/>
<path d="M2119 7343 c-13 -16 -12 -17 4 -4 9 7 17 15 17 17 0 8 -8 3 -21 -13z"/>
<path d="M2223 6798 c-15 -18 -35 -58 -29 -58 2 0 13 16 25 35 20 35 22 46 4
23z"/>
<path d="M2107 6589 c-37 -67 -34 -77 4 -11 17 29 30 55 28 57 -2 2 -16 -19
-32 -46z"/>
<path d="M1480 6459 c-7 -11 -10 -23 -7 -25 2 -2 9 7 15 21 14 30 7 33 -8 4z"/>
<path d="M2026 6433 c-6 -14 -5 -15 5 -6 7 7 10 15 7 18 -3 3 -9 -2 -12 -12z"/>
<path d="M1452 6395 c-17 -37 -14 -45 4 -12 9 16 14 31 11 33 -2 2 -9 -7 -15
-21z"/>
<path d="M1416 6284 c-4 -14 -5 -28 -3 -31 3 -2 8 8 11 23 4 14 5 28 3 31 -3
2 -8 -8 -11 -23z"/>
<path d="M1387 6173 c-10 -31 -15 -58 -13 -60 3 -3 12 20 21 52 9 31 15 58 13
60 -2 3 -12 -21 -21 -52z"/>
<path d="M1933 6145 c-3 -9 -3 -18 -1 -21 3 -3 8 4 11 16 6 23 -1 27 -10 5z"/>
<path d="M1884 6002 c-13 -9 -48 -121 -41 -129 3 -3 11 14 17 37 16 61 32 90
43 83 6 -3 7 -1 3 5 -8 14 -8 14 -22 4z"/>
<path d="M1882 5943 c-6 -15 -16 -45 -23 -65 -7 -21 -16 -33 -20 -27 -7 13
-11 -5 -49 -226 -43 -260 -55 -395 -52 -592 3 -147 17 -108 19 51 1 80 7 164
14 188 6 24 16 88 21 143 5 55 11 116 13 135 7 70 66 329 87 383 6 15 8 30 6
33 -3 2 -10 -8 -16 -23z"/>
<path d="M1292 5660 c0 -14 2 -19 5 -12 2 6 2 18 0 25 -3 6 -5 1 -5 -13z"/>
<path d="M1281 5594 c0 -11 3 -14 6 -6 3 7 2 16 -1 19 -3 4 -6 -2 -5 -13z"/>
<path d="M1243 5260 c0 -36 2 -50 4 -32 2 17 2 47 0 65 -2 17 -4 3 -4 -33z"/>
<path d="M1241 5154 c0 -11 3 -14 6 -6 3 7 2 16 -1 19 -3 4 -6 -2 -5 -13z"/>
<path d="M9066 5068 c6 -71 14 -74 14 -5 0 32 -4 57 -9 57 -5 0 -7 -23 -5 -52z"/>
<path d="M1752 4900 c0 -19 2 -27 5 -17 2 9 2 25 0 35 -3 9 -5 1 -5 -18z"/>
<path d="M1750 4810 c0 -5 5 -10 11 -10 5 0 7 5 4 10 -3 6 -8 10 -11 10 -2 0
-4 -4 -4 -10z"/>
<path d="M1752 4715 c0 -16 2 -22 5 -12 2 9 2 23 0 30 -3 6 -5 -1 -5 -18z"/>
<path d="M1763 4684 c-6 -13 -7 -24 -3 -24 9 0 25 39 18 45 -2 2 -8 -7 -15
-21z"/>
<path d="M1777 4657 c-11 -29 -9 -43 4 -30 6 6 9 19 7 29 -3 18 -4 18 -11 1z"/>
<path d="M1763 4595 c-1 -30 14 -85 16 -59 0 11 7 26 14 33 10 11 9 13 -5 8
-12 -4 -18 1 -21 16 -4 19 -4 19 -4 2z"/>
<path d="M9021 4495 c0 -16 -4 -41 -6 -55 l-6 -25 11 25 c6 13 9 38 7 55 l-4
30 -2 -30z"/>
<path d="M2000 4219 c0 -4 7 -22 15 -40 8 -19 14 -27 14 -19 0 14 -28 72 -29
59z"/>
<path d="M2036 4120 c3 -14 11 -32 16 -40 6 -10 7 -7 2 10 -3 14 -11 32 -16
40 -6 10 -7 7 -2 -10z"/>
<path d="M2071 4034 c0 -11 3 -14 6 -6 3 7 2 16 -1 19 -3 4 -6 -2 -5 -13z"/>
<path d="M2099 3948 c22 -55 51 -118 55 -118 2 0 -8 32 -22 70 -15 39 -30 70
-34 70 -4 0 -4 -10 1 -22z"/>
<path d="M2169 3800 c9 -26 89 -179 128 -247 12 -21 34 -60 48 -86 15 -27 29
-47 32 -44 3 3 -5 23 -18 44 -13 21 -22 40 -20 41 2 2 -5 14 -15 25 -11 12
-45 74 -76 137 -58 117 -98 183 -79 130z"/>
<path d="M2396 3407 c3 -10 9 -15 12 -12 3 3 0 11 -7 18 -10 9 -11 8 -5 -6z"/>
<path d="M2434 3336 c0 -13 3 -22 5 -20 3 2 16 -6 29 -18 24 -21 23 -20 -3 17
-16 22 -30 41 -31 43 -1 2 -1 -8 0 -22z"/>
<path d="M8512 2923 c-26 -38 -34 -53 -29 -53 2 0 16 18 31 40 29 45 28 56 -2
13z"/>
<path d="M1970 2766 c0 -2 8 -10 18 -17 15 -13 16 -12 3 4 -13 16 -21 21 -21
13z"/>
<path d="M2020 2700 c11 -16 26 -33 32 -36 7 -4 -1 9 -16 29 -34 44 -46 50
-16 7z"/>
<path d="M8299 2653 c-13 -16 -12 -17 4 -4 9 7 17 15 17 17 0 8 -8 3 -21 -13z"/>
<path d="M8254 2598 l-19 -23 23 19 c21 18 27 26 19 26 -2 0 -12 -10 -23 -22z"/>
<path d="M8204 2538 l-19 -23 23 19 c12 11 22 21 22 23 0 8 -8 2 -26 -19z"/>
<path d="M2165 2510 c10 -11 20 -20 23 -20 3 0 -3 9 -13 20 -10 11 -20 20 -23
20 -3 0 3 -9 13 -20z"/>
<path d="M2200 2473 c0 -5 10 -18 23 -29 l22 -19 -20 25 c-11 14 -21 27 -22
29 -2 2 -3 0 -3 -6z"/>
<path d="M2240 2417 c0 -2 15 -16 33 -33 l32 -29 -29 33 c-28 30 -36 37 -36
29z"/>
<path d="M8054 2338 l-19 -23 23 19 c12 11 22 21 22 23 0 8 -8 2 -26 -19z"/>
<path d="M2310 2346 c0 -2 8 -10 18 -17 15 -13 16 -12 3 4 -13 16 -21 21 -21
13z"/>
<path d="M7940 2223 l-55 -58 58 55 c53 50 62 60 54 60 -1 0 -27 -26 -57 -57z"/>
<path d="M6230 2260 c-20 -6 -21 -8 -5 -8 11 0 29 3 40 8 25 11 -1 11 -35 0z"/>
<path d="M6170 2240 c-8 -6 -32 -15 -54 -21 -21 -6 -36 -13 -33 -16 7 -7 105
26 112 38 8 12 -6 11 -25 -1z"/>
<path d="M2630 2151 c47 -44 105 -94 130 -112 l45 -31 -36 34 c-20 18 -79 68
-130 111 l-94 79 85 -81z"/>
<path d="M3960 2180 c14 -4 34 -8 45 -8 16 0 15 2 -5 8 -14 4 -34 8 -45 8 -16
0 -15 -2 5 -8z"/>
<path d="M4080 2152 c22 -14 197 -52 233 -51 18 0 -20 12 -83 26 -169 36 -167
36 -150 25z"/>
<path d="M7854 2128 l-19 -23 23 19 c21 18 27 26 19 26 -2 0 -12 -10 -23 -22z"/>
<path d="M7784 2058 l-29 -33 33 29 c17 17 32 31 32 33 0 8 -8 1 -36 -29z"/>
<path d="M2820 1997 c0 -3 21 -22 47 -43 26 -21 44 -33 40 -27 -9 14 -87 77
-87 70z"/>
<path d="M2980 1866 c0 -2 8 -10 18 -17 15 -13 16 -12 3 4 -13 16 -21 21 -21
13z"/>
<path d="M3025 1830 c3 -5 8 -10 11 -10 2 0 4 5 4 10 0 6 -5 10 -11 10 -5 0
-7 -4 -4 -10z"/>
<path d="M3070 1801 c14 -11 30 -21 35 -21 11 0 -7 14 -40 31 -13 7 -12 3 5
-10z"/>
<path d="M3908 1443 c7 -3 16 -2 19 1 4 3 -2 6 -13 5 -11 0 -14 -3 -6 -6z"/>
<path d="M4308 1333 c7 -3 16 -2 19 1 4 3 -2 6 -13 5 -11 0 -14 -3 -6 -6z"/>
<path d="M4375 1319 c22 -6 55 -14 73 -18 17 -5 32 -6 32 -1 0 4 -28 13 -63
19 -75 13 -99 13 -42 0z"/>
<path d="M4510 1290 c25 -8 97 -13 89 -6 -2 2 -29 6 -59 9 -36 4 -46 3 -30 -3z"/>
<path d="M4618 1273 c6 -2 18 -2 25 0 6 3 1 5 -13 5 -14 0 -19 -2 -12 -5z"/>
<path d="M4683 1263 c9 -2 23 -2 30 0 6 3 -1 5 -18 5 -16 0 -22 -2 -12 -5z"/>
</g>
</svg>
